<?xml version="1.0" encoding="UTF-8" standalone="no"?><!DOCTYPE svg PUBLIC "-//W3C//DTD SVG 1.1//EN" "http://www.w3.org/Graphics/SVG/1.1/DTD/svg11.dtd"><svg width="100%" height="100%" viewBox="0 0 534 534" version="1.1" xmlns="http://www.w3.org/2000/svg" xmlns:xlink="http://www.w3.org/1999/xlink" xml:space="preserve" xmlns:serif="http://www.serif.com/" style="fill-rule:evenodd;clip-rule:evenodd;stroke-linejoin:round;stroke-miterlimit:2;"><rect x="34.911" y="244.715" width="463.511" height="127.201" style="fill:#7d1b12;"/><rect x="97.127" y="306.5" width="339.079" height="148.493" style="fill:#7d1b12;"/><rect x="97.127" y="161.637" width="339.079" height="146.678" style="fill:#7d1b12;"/><rect x="180.112" y="78.195" width="173.109" height="146.678" style="fill:#7d1b12;"/><rect x="181.897" y="454.993" width="169.54" height="41.539" style="fill:#ff5141;"/><path d="M55.68,371.915l0,-127.2l-41.538,-0l-0,127.2l41.538,0Z" style="fill:#ff5141;"/><path d="M519.192,371.915l-0,-127.2l-41.539,-0l-0,127.2l41.539,0Z" style="fill:#ff5141;"/><rect x="97.127" y="413.454" width="84.77" height="41.539" style="fill:#ff5141;"/><rect x="351.437" y="413.454" width="84.77" height="41.539" style="fill:#ff5141;"/><rect x="436.206" y="371.915" width="41.446" height="41.539" style="fill:#ff5141;"/><rect x="436.206" y="203.176" width="41.446" height="41.539" style="fill:#ff5141;"/><rect x="55.68" y="203.176" width="41.446" height="41.539" style="fill:#ff5141;"/><rect x="97.219" y="161.637" width="41.446" height="41.539" style="fill:#ff5141;"/><rect x="394.76" y="161.637" width="41.446" height="41.539" style="fill:#ff5141;"/><rect x="353.221" y="120.098" width="41.446" height="41.539" style="fill:#ff5141;"/><rect x="311.682" y="78.559" width="41.446" height="41.539" style="fill:#ff5141;"/><rect x="222.044" y="36.802" width="89.245" height="41.539" style="fill:#ff5141;"/><rect x="138.666" y="120.098" width="41.446" height="41.539" style="fill:#ff5141;"/><rect x="180.204" y="78.559" width="41.446" height="41.539" style="fill:#ff5141;"/><rect x="311.775" y="214.207" width="41.446" height="41.539" style="fill:#ff5141;"/><rect x="394.76" y="287.546" width="41.446" height="41.539" style="fill:#ff5141;"/><rect x="97.127" y="287.546" width="41.446" height="41.539" style="fill:#ff5141;"/><rect x="180.112" y="234.976" width="41.446" height="41.539" style="fill:#ff5141;"/><rect x="268.323" y="373.304" width="41.446" height="41.539" style="fill:#ff5141;"/><rect x="270.227" y="120.098" width="41.446" height="41.539" style="fill:#ff5141;"/><rect x="55.68" y="371.915" width="41.446" height="41.539" style="fill:#ff5141;"/></svg>